<svg width="609" height="249" viewBox="0 0 609 249" fill="none" xmlns="http://www.w3.org/2000/svg">
<path d="M592 174L9 151H592V174Z" fill="white"/>
<path d="M33.4789 100.185L35.4197 113.493L38.2616 101.502L58.2242 31.0781H69.4531L88.9305 101.502L91.703 113.701L93.8518 100.115L109.517 31.0781H122.895L98.4266 132H86.2965L65.5022 58.4573L63.9079 50.7634L62.3137 58.4573L40.7569 132H28.6269L4.22818 31.0781H17.5366L33.4789 100.185ZM190.407 105.661H148.125L138.629 132H124.905L163.444 31.0781H175.088L213.697 132H200.042L190.407 105.661ZM152.145 94.7088H186.456L169.266 47.5057L152.145 94.7088ZM257.018 87.0149C245.604 83.734 237.287 79.7138 232.065 74.9542C226.889 70.1484 224.302 64.2336 224.302 57.2097C224.302 49.2616 227.467 42.6999 233.798 37.5244C240.175 32.3027 248.446 29.6918 258.612 29.6918C265.544 29.6918 271.713 31.0319 277.119 33.7121C282.572 36.3922 286.777 40.089 289.734 44.8024C292.738 49.5158 294.24 54.6682 294.24 60.2595H280.862C280.862 54.1598 278.921 49.3771 275.04 45.9114C271.158 42.3995 265.682 40.6435 258.612 40.6435C252.051 40.6435 246.921 42.0991 243.224 45.0103C239.574 47.8753 237.749 51.8725 237.749 57.0017C237.749 61.1144 239.482 64.6032 242.947 67.4682C246.459 70.287 252.397 72.8748 260.761 75.2314C269.171 77.5881 275.733 80.199 280.446 83.064C285.206 85.8828 288.718 89.1868 290.982 92.976C293.293 96.7651 294.448 101.224 294.448 106.354C294.448 114.533 291.259 121.095 284.882 126.039C278.506 130.937 269.98 133.386 259.305 133.386C252.374 133.386 245.905 132.069 239.897 129.435C233.89 126.755 229.246 123.105 225.965 118.484C222.731 113.863 221.113 108.618 221.113 102.749H234.491C234.491 108.849 236.732 113.678 241.214 117.236C245.743 120.748 251.773 122.504 259.305 122.504C266.329 122.504 271.713 121.071 275.456 118.206C279.199 115.341 281.07 111.437 281.07 106.492C281.07 101.548 279.337 97.7355 275.872 95.0554C272.406 92.329 266.121 89.6489 257.018 87.0149ZM341.304 87.0149C329.891 83.734 321.573 79.7138 316.351 74.9542C311.176 70.1484 308.588 64.2336 308.588 57.2097C308.588 49.2616 311.753 42.6999 318.084 37.5244C324.461 32.3027 332.733 29.6918 342.899 29.6918C349.83 29.6918 355.999 31.0319 361.406 33.7121C366.858 36.3922 371.063 40.089 374.021 44.8024C377.025 49.5158 378.526 54.6682 378.526 60.2595H365.149C365.149 54.1598 363.208 49.3771 359.326 45.9114C355.445 42.3995 349.969 40.6435 342.899 40.6435C336.337 40.6435 331.208 42.0991 327.511 45.0103C323.86 47.8753 322.035 51.8725 322.035 57.0017C322.035 61.1144 323.768 64.6032 327.234 67.4682C330.746 70.287 336.683 72.8748 345.047 75.2314C353.458 77.5881 360.019 80.199 364.733 83.064C369.492 85.8828 373.004 89.1868 375.269 92.976C377.579 96.7651 378.734 101.224 378.734 106.354C378.734 114.533 375.546 121.095 369.169 126.039C362.792 130.937 354.266 133.386 343.592 133.386C336.66 133.386 330.191 132.069 324.184 129.435C318.177 126.755 313.532 123.105 310.252 118.484C307.017 113.863 305.4 108.618 305.4 102.749H318.777C318.777 108.849 321.018 113.678 325.501 117.236C330.029 120.748 336.06 122.504 343.592 122.504C350.616 122.504 355.999 121.071 359.742 118.206C363.485 115.341 365.357 111.437 365.357 106.492C365.357 101.548 363.624 97.7355 360.158 95.0554C356.692 92.329 350.408 89.6489 341.304 87.0149ZM451.584 105.661H409.302L399.806 132H386.082L424.62 31.0781H436.265L474.873 132H461.219L451.584 105.661ZM413.322 94.7088H447.633L430.443 47.5057L413.322 94.7088ZM488.459 132V31.0781H521.453C532.404 31.0781 540.63 33.3424 546.129 37.8709C551.674 42.3995 554.446 49.0999 554.446 57.9721C554.446 62.6855 553.106 66.8675 550.426 70.5181C547.746 74.1224 544.095 76.9181 539.475 78.9051C544.927 80.43 549.225 83.3412 552.367 87.6387C555.555 91.89 557.15 96.9731 557.15 102.888C557.15 111.945 554.215 119.061 548.347 124.237C542.478 129.412 534.184 132 523.463 132H488.459ZM501.767 84.7968V121.118H523.74C529.932 121.118 534.807 119.523 538.366 116.335C541.97 113.1 543.772 108.664 543.772 103.027C543.772 90.8734 537.164 84.7968 523.948 84.7968H501.767ZM501.767 74.1224H521.869C527.691 74.1224 532.335 72.6668 535.801 69.7556C539.313 66.8444 541.069 62.8935 541.069 57.9028C541.069 52.3577 539.451 48.3374 536.217 45.8421C532.982 43.3006 528.061 42.0298 521.453 42.0298H501.767V74.1224ZM591.183 132H577.875V31.0781H591.183V132Z" fill="white"/>
<path d="M218.737 228.347C215.78 227.497 213.626 226.456 212.273 225.223C210.933 223.978 210.262 222.446 210.262 220.627C210.262 218.568 211.082 216.868 212.722 215.527C214.374 214.175 216.517 213.498 219.15 213.498C220.946 213.498 222.544 213.846 223.944 214.54C225.356 215.234 226.446 216.192 227.212 217.413C227.99 218.634 228.379 219.968 228.379 221.417H224.914C224.914 219.837 224.411 218.598 223.405 217.7C222.4 216.79 220.981 216.335 219.15 216.335C217.45 216.335 216.122 216.712 215.164 217.467C214.218 218.209 213.746 219.244 213.746 220.573C213.746 221.638 214.194 222.542 215.092 223.284C216.002 224.014 217.54 224.684 219.707 225.295C221.885 225.905 223.585 226.582 224.806 227.324C226.039 228.054 226.948 228.91 227.535 229.891C228.133 230.873 228.433 232.028 228.433 233.357C228.433 235.475 227.607 237.175 225.955 238.456C224.303 239.725 222.095 240.359 219.33 240.359C217.534 240.359 215.858 240.018 214.302 239.336C212.746 238.641 211.543 237.696 210.693 236.499C209.855 235.302 209.436 233.943 209.436 232.423H212.902C212.902 234.003 213.482 235.254 214.643 236.176C215.816 237.085 217.378 237.54 219.33 237.54C221.149 237.54 222.544 237.169 223.513 236.427C224.483 235.685 224.967 234.673 224.967 233.393C224.967 232.112 224.519 231.124 223.621 230.43C222.723 229.724 221.095 229.03 218.737 228.347ZM251.271 213.858V231.633C251.259 234.099 250.481 236.116 248.937 237.684C247.405 239.252 245.322 240.132 242.689 240.323L241.773 240.359C238.912 240.359 236.632 239.587 234.932 238.043C233.233 236.499 232.371 234.374 232.347 231.669V213.858H235.758V231.561C235.758 233.452 236.279 234.925 237.32 235.978C238.362 237.019 239.846 237.54 241.773 237.54C243.724 237.54 245.215 237.019 246.244 235.978C247.285 234.937 247.806 233.47 247.806 231.579V213.858H251.271ZM264.414 228.347C261.458 227.497 259.303 226.456 257.951 225.223C256.61 223.978 255.94 222.446 255.94 220.627C255.94 218.568 256.76 216.868 258.4 215.527C260.051 214.175 262.194 213.498 264.827 213.498C266.623 213.498 268.221 213.846 269.621 214.54C271.034 215.234 272.123 216.192 272.889 217.413C273.667 218.634 274.056 219.968 274.056 221.417H270.591C270.591 219.837 270.088 218.598 269.083 217.7C268.077 216.79 266.659 216.335 264.827 216.335C263.128 216.335 261.799 216.712 260.841 217.467C259.896 218.209 259.423 219.244 259.423 220.573C259.423 221.638 259.872 222.542 260.77 223.284C261.679 224.014 263.217 224.684 265.384 225.295C267.563 225.905 269.262 226.582 270.483 227.324C271.716 228.054 272.626 228.91 273.212 229.891C273.811 230.873 274.11 232.028 274.11 233.357C274.11 235.475 273.284 237.175 271.632 238.456C269.98 239.725 267.772 240.359 265.007 240.359C263.211 240.359 261.536 240.018 259.98 239.336C258.423 238.641 257.221 237.696 256.371 236.499C255.533 235.302 255.114 233.943 255.114 232.423H258.579C258.579 234.003 259.16 235.254 260.321 236.176C261.494 237.085 263.056 237.54 265.007 237.54C266.826 237.54 268.221 237.169 269.19 236.427C270.16 235.685 270.645 234.673 270.645 233.393C270.645 232.112 270.196 231.124 269.298 230.43C268.4 229.724 266.773 229.03 264.414 228.347ZM298.637 240H295.171V227.916H281.992V240H278.545V213.858H281.992V225.097H295.171V213.858H298.637V240ZM308.458 240H305.011V213.858H308.458V240ZM323.899 240V213.858H332.446C335.283 213.858 337.413 214.444 338.838 215.617C340.274 216.79 340.992 218.526 340.992 220.824C340.992 222.045 340.645 223.128 339.951 224.074C339.257 225.008 338.311 225.732 337.114 226.247C338.527 226.642 339.64 227.396 340.454 228.509C341.28 229.61 341.693 230.927 341.693 232.459C341.693 234.805 340.932 236.648 339.412 237.989C337.892 239.33 335.744 240 332.966 240H323.899ZM327.347 227.773V237.181H333.038C334.642 237.181 335.905 236.768 336.827 235.942C337.76 235.104 338.227 233.955 338.227 232.495C338.227 229.347 336.516 227.773 333.092 227.773H327.347ZM327.347 225.008H332.554C334.062 225.008 335.265 224.631 336.162 223.876C337.072 223.122 337.527 222.099 337.527 220.806C337.527 219.37 337.108 218.328 336.27 217.682C335.432 217.024 334.157 216.694 332.446 216.694H327.347V225.008ZM361.246 233.177H350.293L347.833 240H344.278L354.261 213.858H357.277L367.278 240H363.741L361.246 233.177ZM351.334 230.34H360.222L355.769 218.113L351.334 230.34ZM380.386 229.425H374.245V240H370.78V213.858H379.434C382.379 213.858 384.641 214.528 386.221 215.869C387.813 217.209 388.609 219.16 388.609 221.722C388.609 223.35 388.166 224.768 387.28 225.977C386.406 227.186 385.185 228.09 383.617 228.688L389.758 239.785V240H386.059L380.386 229.425ZM374.245 226.606H379.542C381.253 226.606 382.612 226.163 383.617 225.277C384.635 224.391 385.144 223.206 385.144 221.722C385.144 220.106 384.659 218.867 383.689 218.005C382.732 217.143 381.343 216.706 379.524 216.694H374.245V226.606Z" fill="white"/>
</svg>
